<mxfile host="app.diagrams.net" modified="2021-04-03T00:16:45.100Z" agent="5.0 (Windows)" etag="Vd7Dv9YrUSz0MpHiyaWx" version="14.5.6" type="github">
  <diagram id="gzj2HFC3_yQIyVyS855p" name="Page-1">
    <mxGraphModel dx="1198" dy="618" grid="1" gridSize="10" guides="1" tooltips="1" connect="1" arrows="1" fold="1" page="1" pageScale="1" pageWidth="850" pageHeight="1100" math="0" shadow="0">
      <root>
        <mxCell id="0" />
        <mxCell id="1" parent="0" />
        <mxCell id="Vw5qlOSXsA1J8PWmtpcp-1" value="" style="rounded=0;whiteSpace=wrap;html=1;fillColor=#f5f5f5;strokeColor=#666666;fontColor=#333333;" vertex="1" parent="1">
          <mxGeometry x="120" y="80" width="320" height="160" as="geometry" />
        </mxCell>
        <mxCell id="Vw5qlOSXsA1J8PWmtpcp-2" value="" style="rounded=0;whiteSpace=wrap;html=1;" vertex="1" parent="1">
          <mxGeometry x="120" y="450" width="320" height="160" as="geometry" />
        </mxCell>
        <mxCell id="Vw5qlOSXsA1J8PWmtpcp-3" value="" style="rounded=0;whiteSpace=wrap;html=1;fillColor=#f8cecc;strokeColor=#b85450;" vertex="1" parent="1">
          <mxGeometry x="330" y="130" width="110" height="110" as="geometry" />
        </mxCell>
        <mxCell id="Vw5qlOSXsA1J8PWmtpcp-5" value="" style="shape=flexArrow;endArrow=classic;html=1;width=14;endSize=7;" edge="1" parent="1">
          <mxGeometry width="50" height="50" relative="1" as="geometry">
            <mxPoint x="450" y="190" as="sourcePoint" />
            <mxPoint x="490" y="190" as="targetPoint" />
          </mxGeometry>
        </mxCell>
        <mxCell id="Vw5qlOSXsA1J8PWmtpcp-6" value="" style="rounded=0;whiteSpace=wrap;html=1;fillColor=#dae8fc;strokeColor=#6c8ebf;" vertex="1" parent="1">
          <mxGeometry x="120" y="80" width="200" height="120" as="geometry" />
        </mxCell>
        <mxCell id="Vw5qlOSXsA1J8PWmtpcp-7" value="" style="ellipse;whiteSpace=wrap;html=1;aspect=fixed;" vertex="1" parent="1">
          <mxGeometry x="205" y="125" width="30" height="30" as="geometry" />
        </mxCell>
        <mxCell id="Vw5qlOSXsA1J8PWmtpcp-8" value="" style="rounded=0;whiteSpace=wrap;html=1;" vertex="1" parent="1">
          <mxGeometry x="380" y="165" width="10" height="40" as="geometry" />
        </mxCell>
        <mxCell id="Vw5qlOSXsA1J8PWmtpcp-9" value="" style="rounded=0;whiteSpace=wrap;html=1;" vertex="1" parent="1">
          <mxGeometry x="560" y="80" width="320" height="240" as="geometry" />
        </mxCell>
        <mxCell id="Vw5qlOSXsA1J8PWmtpcp-10" value="" style="rounded=0;whiteSpace=wrap;html=1;fillColor=#dae8fc;strokeColor=#6c8ebf;" vertex="1" parent="1">
          <mxGeometry x="560" y="80" width="200" height="80" as="geometry" />
        </mxCell>
        <mxCell id="Vw5qlOSXsA1J8PWmtpcp-11" value="" style="rounded=0;whiteSpace=wrap;html=1;fillColor=#f8cecc;strokeColor=#b85450;" vertex="1" parent="1">
          <mxGeometry x="770" y="80" width="110" height="90" as="geometry" />
        </mxCell>
      </root>
    </mxGraphModel>
  </diagram>
</mxfile>
